# xmcd CD database file
#
# Track frame offsets:
#	150
#	10397
#	21110
#	31890
#	42122
#	52657
#	65217
#	74985
#	86150
#	97297
#	106475
#	118712
#	130365
#	144902
#	158655
#	170030
#	183175
#	192832
#	202680
#	212440
#	223067
#	232367
#	239977
#	249727
#	267807
#	288180
#	301540
#
# Disc length: 4245 seconds
#
# Revision: 0
# Processed by: cddbd v1.5.1PL0 Copyright (c) Steve Scherf et al.
# Submitted via: CDex 1.51
#
DISCID=9410931b
DTITLE=Frank Sinatra - In the blue of the evening
DYEAR=1992
DGENRE=Jazz
TTITLE0=There will never be another you
TTITLE1=Rose Ann of charing cross
TTITLE2=How deep is the ocean
TTITLE3=Please think of me
TTITLE4=Moonlight mood
TTITLE5=Weep no more my Lady
TTITLE6=She´s funny that way
TTITLE7=Starlight Sonata
TTITLE8=Thats´s my affair
TTITLE9=It started all over again
TTITLE10=I don´t believe in rumors
TTITLE11=As time goes by
TTITLE12=In the blue of evening
TTITLE13=You´ll never know
TTITLE14=Kiss me again
TTITLE15=Embracable you #1
TTITLE16=Daybreak
TTITLE17=There are such things
TTITLE18=I only have eyes for you
TTITLE19=Every night about this time
TTITLE20=Close to you
TTITLE21=It can´t be wrong
TTITLE22=Embracable you #2
TTITLE23=White christmas
TTITLE24=Going home
TTITLE25=Why try to change me know?
TTITLE26=The birth of the blues
EXTD=YEAR: 1992
EXTT0=
EXTT1=
EXTT2=
EXTT3=
EXTT4=
EXTT5=
EXTT6=
EXTT7=
EXTT8=
EXTT9=
EXTT10=
EXTT11=
EXTT12=
EXTT13=
EXTT14=
EXTT15=
EXTT16=
EXTT17=
EXTT18=
EXTT19=
EXTT20=
EXTT21=
EXTT22=
EXTT23=
EXTT24=
EXTT25=
EXTT26=
PLAYORDER=
